<svg width="96" height="96" viewBox="0 0 96 96" fill="none" xmlns="http://www.w3.org/2000/svg">
<mask id="mask0_6919_40976" style="mask-type:alpha" maskUnits="userSpaceOnUse" x="0" y="0" width="96" height="96">
<path d="M88 0H8C3.58172 0 0 3.58172 0 8V88C0 92.4183 3.58172 96 8 96H88C92.4183 96 96 92.4183 96 88V8C96 3.58172 92.4183 0 88 0Z" fill="#FF9661"/>
</mask>
<g mask="url(#mask0_6919_40976)">
<path d="M88 0H8C3.58172 0 0 3.58172 0 8V88C0 92.4183 3.58172 96 8 96H88C92.4183 96 96 92.4183 96 88V8C96 3.58172 92.4183 0 88 0Z" fill="white"/>
<path d="M-0.866051 -32.4754L-36.6584 -15.9369L-16.4387 -70.2756C-15.5956 -72.5413 -17.918 -74.6723 -20.1197 -73.655L-63.3241 -53.6916C-65.9455 -52.4804 -67.0958 -49.3892 -65.8934 -46.787L-26.9234 37.5514C-25.4593 40.7198 -21.6873 42.0919 -18.4955 40.6171L23.8637 21.0443C27.0555 19.5695 28.4552 15.8076 26.9912 12.6392L7.56185 -29.4097C6.09785 -32.5781 2.32575 -33.9502 -0.866051 -32.4754Z" fill="#FDEBFF"/>
<path d="M123.057 123.578L84.8169 113.969L134.679 84.3821C136.758 83.1481 136.289 80.0311 133.937 79.4401L87.7779 67.8417C84.9769 67.1379 82.1409 68.8211 81.4419 71.6012L58.7999 161.706C57.9499 165.092 60.0229 168.528 63.4329 169.385L108.689 180.757C112.099 181.614 115.551 179.566 116.402 176.181L127.69 131.256C128.541 127.871 126.467 124.435 123.057 123.578Z" fill="#FFEB7A"/>
<mask id="mask1_6919_40976" style="mask-type:alpha" maskUnits="userSpaceOnUse" x="20" y="20" width="56" height="56">
<path d="M76 20H20V76H76V20Z" fill="#D9D9D9"/>
</mask>
<g mask="url(#mask1_6919_40976)">
<path d="M56.915 48.5834C56.681 48.5834 56.458 48.5538 56.245 48.4947C56.03 48.4372 55.826 48.3306 55.631 48.1751C52.365 45.2584 49.5645 42.4677 47.2312 39.8031C44.8978 37.14 43.7312 34.6806 43.7312 32.4251C43.7312 30.4806 44.4024 28.8372 45.7448 27.4947C47.0857 26.1538 48.7284 25.4834 50.6728 25.4834C51.8395 25.4834 52.967 25.7556 54.056 26.3001C55.145 26.8445 56.098 27.6417 56.915 28.6917C57.77 27.6417 58.732 26.8445 59.801 26.3001C60.871 25.7556 61.99 25.4834 63.156 25.4834C65.14 25.4834 66.792 26.1538 68.115 27.4947C69.437 28.8372 70.098 30.4806 70.098 32.4251C70.098 34.6806 68.931 37.14 66.598 39.8031C64.265 42.4677 61.465 45.2584 58.198 48.1751C58.042 48.3306 57.848 48.4372 57.615 48.4947C57.381 48.5538 57.148 48.5834 56.915 48.5834ZM56.915 44.5001C59.403 42.2834 61.64 40.0761 63.623 37.8781C65.606 35.6816 66.598 33.864 66.598 32.4251C66.598 31.414 66.277 30.5872 65.634 29.9447C64.993 29.3038 64.167 28.9834 63.156 28.9834C62.573 28.9834 61.97 29.1288 61.348 29.4197C60.726 29.7122 60.123 30.2473 59.54 31.0251L56.915 34.1751L54.29 31.0251C53.706 30.2473 53.103 29.7122 52.481 29.4197C51.859 29.1288 51.2562 28.9834 50.6728 28.9834C49.6617 28.9834 48.8357 29.3038 48.1948 29.9447C47.5524 30.5872 47.2312 31.414 47.2312 32.4251C47.2312 33.864 48.2228 35.6816 50.2062 37.8781C52.19 40.0761 54.426 42.2834 56.915 44.5001ZM51.9562 67.5417C52.034 67.5806 52.102 67.6001 52.162 67.6001C52.219 67.6001 52.287 67.5806 52.365 67.5417L66.073 63.2834C65.956 62.7389 65.703 62.3306 65.315 62.0584C64.926 61.7862 64.498 61.6501 64.031 61.6501H52.656C51.6062 61.6501 50.7312 61.6018 50.0312 61.5054C49.3312 61.4074 48.5923 61.2417 47.8145 61.0084L44.1978 59.8417C43.6923 59.6862 43.3423 59.3852 43.1479 58.9387C42.9534 58.4907 42.934 58.014 43.0895 57.5084C43.2451 57.0806 43.5367 56.7594 43.9645 56.5447C44.3923 56.3316 44.8395 56.2834 45.3062 56.4001L48.3395 57.5084C49.0395 57.7028 49.8274 57.8483 50.7032 57.9447C51.5774 58.0427 52.715 58.1112 54.115 58.1501H54.698C54.698 57.5667 54.572 57.0612 54.32 56.6334C54.066 56.2056 53.726 55.9334 53.298 55.8167L39.7645 50.8001H35.2145V62.8167L51.9562 67.5417ZM51.0228 70.9834L35.2145 66.4334C34.9423 67.4056 34.3978 68.1834 33.5812 68.7667C32.7645 69.3501 31.8895 69.6417 30.9562 69.6417H27.7479C26.5812 69.6417 25.5895 69.2233 24.7729 68.3864C23.9562 67.5511 23.5479 66.5501 23.5479 65.3834V51.5001C23.5479 50.3334 23.9562 49.3417 24.7729 48.5251C25.5895 47.7084 26.5812 47.3001 27.7479 47.3001H39.4729C39.7451 47.3001 39.9978 47.3195 40.2312 47.3584C40.4645 47.3973 40.6978 47.4556 40.9312 47.5334L54.523 52.5501C55.573 52.939 56.448 53.6288 57.148 54.6197C57.848 55.6122 58.198 56.7889 58.198 58.1501H64.031C65.703 58.1501 67.075 58.6852 68.145 59.7554C69.214 60.8241 69.748 62.2334 69.748 63.9834C69.748 64.6445 69.573 65.1796 69.223 65.5887C68.873 65.9963 68.3279 66.3167 67.59 66.5501L53.473 70.9251C53.084 71.0417 52.676 71.1102 52.248 71.1304C51.8201 71.1491 51.4117 71.1001 51.0228 70.9834ZM27.0479 65.3834C27.0479 65.6167 27.1163 65.8018 27.2532 65.9387C27.3885 66.0741 27.5534 66.1417 27.7479 66.1417H30.9562C31.1895 66.1417 31.3746 66.0834 31.5115 65.9667C31.6469 65.8501 31.7145 65.6556 31.7145 65.3834V50.8001H27.7479C27.5534 50.8001 27.3885 50.8677 27.2532 51.0031C27.1163 51.14 27.0479 51.3056 27.0479 51.5001V65.3834Z" fill="#8CE0BE"/>
</g>
</g>
</svg>
