<svg width="112" height="112" viewBox="0 0 112 112" fill="none" xmlns="http://www.w3.org/2000/svg">
<g filter="url(#filter0_d_6919_40991)">
<mask id="mask0_6919_40991" style="mask-type:alpha" maskUnits="userSpaceOnUse" x="8" y="7" width="96" height="96">
<rect x="8" y="7" width="96" height="96" rx="8" fill="#FF9661"/>
</mask>
<g mask="url(#mask0_6919_40991)">
<rect x="8" y="7" width="96" height="96" rx="8" fill="white"/>
<path d="M7.13404 -25.4754L-28.6583 -8.93693L-8.43862 -63.2756C-7.59554 -65.5413 -9.9179 -67.6723 -12.1196 -66.655L-55.324 -46.6916C-57.9454 -45.4804 -59.0957 -42.3892 -57.8933 -39.787L-18.9233 44.5514C-17.4592 47.7198 -13.6872 49.0919 -10.4954 47.6171L31.8638 28.0443C35.0555 26.5695 36.4553 22.8076 34.9913 19.6392L15.5619 -22.4097C14.0979 -25.5781 10.3258 -26.9502 7.13404 -25.4754Z" fill="#FDEBFF"/>
<path d="M131.057 130.578L92.8174 120.969L142.679 91.382C144.758 90.1483 144.289 87.0315 141.937 86.4404L95.7779 74.8416C92.9772 74.1378 90.1408 75.821 89.4422 78.6011L66.8004 168.706C65.9498 172.092 68.0234 175.528 71.4334 176.385L116.689 187.757C120.099 188.614 123.551 186.566 124.402 183.181L135.69 138.256C136.541 134.871 134.467 131.435 131.057 130.578Z" fill="#FFEB7A"/>
<mask id="mask1_6919_40991" style="mask-type:alpha" maskUnits="userSpaceOnUse" x="28" y="27" width="56" height="56">
<rect x="28" y="27" width="56" height="56" fill="#D9D9D9"/>
</mask>
<g mask="url(#mask1_6919_40991)">
<path d="M64.9145 55.5834C64.6812 55.5834 64.458 55.5538 64.2448 55.4947C64.0302 55.4372 63.8256 55.3306 63.6312 55.1751C60.3645 52.2584 57.5645 49.4677 55.2312 46.8031C52.8979 44.14 51.7312 41.6806 51.7312 39.4251C51.7312 37.4806 52.4024 35.8372 53.7449 34.4947C55.0857 33.1538 56.7284 32.4834 58.6728 32.4834C59.8395 32.4834 60.9673 32.7556 62.0562 33.3001C63.1451 33.8445 64.0978 34.6417 64.9145 35.6917C65.7701 34.6417 66.7322 33.8445 67.8008 33.3001C68.8711 32.7556 69.9895 32.4834 71.1562 32.4834C73.1395 32.4834 74.7923 33.1538 76.1145 34.4947C77.4367 35.8372 78.0978 37.4806 78.0978 39.4251C78.0978 41.6806 76.9312 44.14 74.5978 46.8031C72.2645 49.4677 69.4645 52.2584 66.1978 55.1751C66.0423 55.3306 65.8478 55.4372 65.6145 55.4947C65.3812 55.5538 65.1478 55.5834 64.9145 55.5834ZM64.9145 51.5001C67.4034 49.2834 69.6395 47.0761 71.6228 44.8781C73.6062 42.6816 74.5978 40.864 74.5978 39.4251C74.5978 38.414 74.2766 37.5872 73.6342 36.9447C72.9933 36.3038 72.1673 35.9834 71.1562 35.9834C70.5728 35.9834 69.9701 36.1288 69.3478 36.4197C68.7256 36.7122 68.1228 37.2473 67.5395 38.0251L64.9145 41.1751L62.2895 38.0251C61.7062 37.2473 61.1034 36.7122 60.4812 36.4197C59.859 36.1288 59.2562 35.9834 58.6728 35.9834C57.6617 35.9834 56.8357 36.3038 56.1948 36.9447C55.5524 37.5872 55.2312 38.414 55.2312 39.4251C55.2312 40.864 56.2228 42.6816 58.2062 44.8781C60.1895 47.0761 62.4256 49.2834 64.9145 51.5001ZM59.9562 74.5417C60.034 74.5806 60.1024 74.6001 60.1615 74.6001C60.2191 74.6001 60.2867 74.5806 60.3645 74.5417L74.0728 70.2834C73.9562 69.7389 73.7034 69.3306 73.3145 69.0584C72.9256 68.7862 72.4978 68.6501 72.0312 68.6501H60.6562C59.6062 68.6501 58.7312 68.6018 58.0312 68.5054C57.3312 68.4074 56.5923 68.2417 55.8145 68.0084L52.1978 66.8417C51.6923 66.6862 51.3423 66.3852 51.1479 65.9387C50.9534 65.4907 50.934 65.014 51.0895 64.5084C51.2451 64.0806 51.5367 63.7594 51.9645 63.5447C52.3923 63.3316 52.8395 63.2834 53.3062 63.4001L56.3395 64.5084C57.0395 64.7028 57.8274 64.8483 58.7032 64.9447C59.5774 65.0427 60.7145 65.1112 62.1145 65.1501H62.6978C62.6978 64.5667 62.5718 64.0612 62.3198 63.6334C62.0663 63.2056 61.7256 62.9334 61.2978 62.8167L47.7645 57.8001H43.2145V69.8167L59.9562 74.5417ZM59.0229 77.9834L43.2145 73.4334C42.9423 74.4056 42.3978 75.1834 41.5812 75.7667C40.7645 76.3501 39.8895 76.6417 38.9562 76.6417H35.7479C34.5812 76.6417 33.5895 76.2233 32.7729 75.3864C31.9562 74.5511 31.5479 73.5501 31.5479 72.3834V58.5001C31.5479 57.3334 31.9562 56.3417 32.7729 55.5251C33.5895 54.7084 34.5812 54.3001 35.7479 54.3001H47.4728C47.7451 54.3001 47.9979 54.3195 48.2312 54.3584C48.4645 54.3973 48.6978 54.4556 48.9312 54.5334L62.5228 59.5501C63.5728 59.939 64.4478 60.6288 65.1479 61.6197C65.8478 62.6122 66.1978 63.7889 66.1978 65.1501H72.0312C73.7034 65.1501 75.0746 65.6852 76.1448 66.7554C77.2135 67.8241 77.7478 69.2334 77.7478 70.9834C77.7478 71.6445 77.5728 72.1796 77.2228 72.5887C76.8728 72.9963 76.3284 73.3167 75.5895 73.5501L61.4728 77.9251C61.084 78.0417 60.6756 78.1102 60.2478 78.1304C59.8201 78.1491 59.4117 78.1001 59.0229 77.9834ZM35.0479 72.3834C35.0479 72.6167 35.1163 72.8018 35.2532 72.9387C35.3885 73.0741 35.5534 73.1417 35.7479 73.1417H38.9562C39.1895 73.1417 39.3746 73.0834 39.5115 72.9667C39.6469 72.8501 39.7145 72.6556 39.7145 72.3834V57.8001H35.7479C35.5534 57.8001 35.3885 57.8677 35.2532 58.0031C35.1163 58.14 35.0479 58.3056 35.0479 58.5001V72.3834Z" fill="#8CE0BE"/>
</g>
</g>
</g>
<defs>
<filter id="filter0_d_6919_40991" x="0" y="0" width="112" height="112" filterUnits="userSpaceOnUse" color-interpolation-filters="sRGB">
<feFlood flood-opacity="0" result="BackgroundImageFix"/>
<feColorMatrix in="SourceAlpha" type="matrix" values="0 0 0 0 0 0 0 0 0 0 0 0 0 0 0 0 0 0 127 0" result="hardAlpha"/>
<feOffset dy="1"/>
<feGaussianBlur stdDeviation="4"/>
<feComposite in2="hardAlpha" operator="out"/>
<feColorMatrix type="matrix" values="0 0 0 0 0.156863 0 0 0 0 0.141176 0 0 0 0 0.109804 0 0 0 0.05 0"/>
<feBlend mode="normal" in2="BackgroundImageFix" result="effect1_dropShadow_6919_40991"/>
<feBlend mode="normal" in="SourceGraphic" in2="effect1_dropShadow_6919_40991" result="shape"/>
</filter>
</defs>
</svg>
